# xmcd
#
# Track frame offsets:
#	150
#	13052
#	27894
#	42035
#	59485
#	77255
#	94243
#	113572
#	130028
#	146183
#	166186
#	182567
#
# Disc length: 2667 seconds
#
# Revision: 0
# Processed by: cddbd v1.5.2PL0 Copyright (c) Steve Scherf et al.
# Submitted via: EasyCDDAExtractor 12.0.2.1
#
DISCID=900a690c
DTITLE=Various Artist - Glory Revealed II
DYEAR=2009
DGENRE=Worship
TTITLE0=Mac Powell, Shane Everett, Jonathan Shelton, Brian Littrell - How Grea
TTITLE0=t
TTITLE1=Mark Hall, Trevor Morgan  - Rejoice In The Lord
TTITLE2=Jason Crabb, Jonathan Shelton, Bear Rinehart  - Wake Up Oh Sleeper
TTITLE3=Ed Cash, Amy Grant, Mac Powell  - Since The World Began
TTITLE4=Trevor Morgan, Geoff Moore  - Psalm 23 
TTITLE5=Natalie Grant, Laura Story  - Praise The Lord
TTITLE6=Brandon Heath, Mike Donehey, Aaron Shurst  - What We Proclaim
TTITLE7=Mac Powell, Shawn Lewis  - Blessed Hope
TTITLE8=Sara Evans, Bethany Olds - There Is A City
TTITLE9=Shane and Shane  - Cup Of Salvation 
TTITLE10=Shawn Lewis, Bethany Dillon  - Never
TTITLE11=Matt Maher, Kari Jobe  - To You Be The Glory
EXTD=
EXTT0=
EXTT1=
EXTT2=
EXTT3=
EXTT4=
EXTT5=
EXTT6=
EXTT7=
EXTT8=
EXTT9=
EXTT10=
EXTT11=
PLAYORDER=
